<svg id="visual" viewBox="0 0 900 600" width="900" height="600" xmlns="http://www.w3.org/2000/svg" xmlns:xlink="http://www.w3.org/1999/xlink" version="1.1"><g stroke-width="1" stroke-linejoin="bevel"><path d="M395 328L335 333L363 369Z" fill="#337945" stroke="#337945"></path><path d="M335 333L290 415L363 369Z" fill="#337945" stroke="#337945"></path><path d="M290 415L315 467L363 369Z" fill="#478554" stroke="#478554"></path><path d="M534 381L520 332L395 328Z" fill="#337945" stroke="#337945"></path><path d="M395 328L365 186L335 333Z" fill="#337945" stroke="#337945"></path><path d="M166 339L185 400L290 415Z" fill="#41814f" stroke="#41814f"></path><path d="M534 381L395 328L363 369Z" fill="#3a7d4a" stroke="#3a7d4a"></path><path d="M395 328L518 204L365 186Z" fill="#478554" stroke="#478554"></path><path d="M365 186L330 171L335 333Z" fill="#548d5e" stroke="#548d5e"></path><path d="M475 508L534 381L363 369Z" fill="#548d5e" stroke="#548d5e"></path><path d="M315 467L396 516L363 369Z" fill="#00652e" stroke="#00652e"></path><path d="M166 339L290 415L335 333Z" fill="#1b6d37" stroke="#1b6d37"></path><path d="M290 415L195 468L315 467Z" fill="#548d5e" stroke="#548d5e"></path><path d="M315 467L296 600L396 516Z" fill="#2c7540" stroke="#2c7540"></path><path d="M173 233L166 339L335 333Z" fill="#106933" stroke="#106933"></path><path d="M396 516L475 508L363 369Z" fill="#00652e" stroke="#00652e"></path><path d="M564 269L518 204L520 332Z" fill="#00652e" stroke="#00652e"></path><path d="M520 332L518 204L395 328Z" fill="#4e8959" stroke="#4e8959"></path><path d="M365 186L389 97L330 171Z" fill="#00652e" stroke="#00652e"></path><path d="M637 496L566 374L534 381Z" fill="#41814f" stroke="#41814f"></path><path d="M534 381L566 374L520 332Z" fill="#3a7d4a" stroke="#3a7d4a"></path><path d="M566 374L564 269L520 332Z" fill="#24713c" stroke="#24713c"></path><path d="M99 513L195 468L185 400Z" fill="#24713c" stroke="#24713c"></path><path d="M185 400L195 468L290 415Z" fill="#4e8959" stroke="#4e8959"></path><path d="M330 171L173 233L335 333Z" fill="#548d5e" stroke="#548d5e"></path><path d="M173 233L139 336L166 339Z" fill="#478554" stroke="#478554"></path><path d="M166 339L123 361L185 400Z" fill="#1b6d37" stroke="#1b6d37"></path><path d="M518 204L389 97L365 186Z" fill="#106933" stroke="#106933"></path><path d="M330 171L220 85L173 233Z" fill="#4e8959" stroke="#4e8959"></path><path d="M0 309L123 361L139 336Z" fill="#1b6d37" stroke="#1b6d37"></path><path d="M139 336L123 361L166 339Z" fill="#3a7d4a" stroke="#3a7d4a"></path><path d="M389 97L278 87L330 171Z" fill="#41814f" stroke="#41814f"></path><path d="M195 468L296 600L315 467Z" fill="#2c7540" stroke="#2c7540"></path><path d="M396 516L436 600L475 508Z" fill="#2c7540" stroke="#2c7540"></path><path d="M296 600L436 600L396 516Z" fill="#3a7d4a" stroke="#3a7d4a"></path><path d="M475 508L637 496L534 381Z" fill="#24713c" stroke="#24713c"></path><path d="M564 269L603 191L518 204Z" fill="#00652e" stroke="#00652e"></path><path d="M518 204L538 94L389 97Z" fill="#24713c" stroke="#24713c"></path><path d="M683 268L603 191L564 269Z" fill="#4e8959" stroke="#4e8959"></path><path d="M436 600L467 600L475 508Z" fill="#478554" stroke="#478554"></path><path d="M278 87L220 85L330 171Z" fill="#41814f" stroke="#41814f"></path><path d="M0 237L0 309L139 336Z" fill="#2c7540" stroke="#2c7540"></path><path d="M561 109L538 94L518 204Z" fill="#3a7d4a" stroke="#3a7d4a"></path><path d="M389 97L312 0L278 87Z" fill="#1b6d37" stroke="#1b6d37"></path><path d="M278 87L312 0L220 85Z" fill="#00652e" stroke="#00652e"></path><path d="M603 191L561 109L518 204Z" fill="#00652e" stroke="#00652e"></path><path d="M220 85L115 168L173 233Z" fill="#41814f" stroke="#41814f"></path><path d="M626 600L637 496L475 508Z" fill="#4e8959" stroke="#4e8959"></path><path d="M566 374L683 268L564 269Z" fill="#106933" stroke="#106933"></path><path d="M123 361L99 513L185 400Z" fill="#41814f" stroke="#41814f"></path><path d="M195 468L166 600L296 600Z" fill="#1b6d37" stroke="#1b6d37"></path><path d="M0 408L99 513L123 361Z" fill="#24713c" stroke="#24713c"></path><path d="M706 407L683 268L566 374Z" fill="#2c7540" stroke="#2c7540"></path><path d="M603 191L676 89L561 109Z" fill="#1b6d37" stroke="#1b6d37"></path><path d="M99 513L166 600L195 468Z" fill="#2c7540" stroke="#2c7540"></path><path d="M516 0L392 0L389 97Z" fill="#1b6d37" stroke="#1b6d37"></path><path d="M392 0L312 0L389 97Z" fill="#2c7540" stroke="#2c7540"></path><path d="M220 85L70 108L115 168Z" fill="#337945" stroke="#337945"></path><path d="M637 496L706 407L566 374Z" fill="#478554" stroke="#478554"></path><path d="M801 204L687 195L683 268Z" fill="#4e8959" stroke="#4e8959"></path><path d="M683 268L687 195L603 191Z" fill="#2c7540" stroke="#2c7540"></path><path d="M707 600L704 466L637 496Z" fill="#1b6d37" stroke="#1b6d37"></path><path d="M637 496L704 466L706 407Z" fill="#3a7d4a" stroke="#3a7d4a"></path><path d="M0 237L139 336L173 233Z" fill="#1b6d37" stroke="#1b6d37"></path><path d="M467 600L626 600L475 508Z" fill="#478554" stroke="#478554"></path><path d="M538 94L516 0L389 97Z" fill="#337945" stroke="#337945"></path><path d="M589 0L516 0L538 94Z" fill="#1b6d37" stroke="#1b6d37"></path><path d="M589 0L538 94L561 109Z" fill="#41814f" stroke="#41814f"></path><path d="M0 309L0 408L123 361Z" fill="#1b6d37" stroke="#1b6d37"></path><path d="M99 513L88 600L166 600Z" fill="#00652e" stroke="#00652e"></path><path d="M115 168L0 237L173 233Z" fill="#41814f" stroke="#41814f"></path><path d="M101 0L70 108L220 85Z" fill="#24713c" stroke="#24713c"></path><path d="M70 108L0 237L115 168Z" fill="#00652e" stroke="#00652e"></path><path d="M312 0L190 0L220 85Z" fill="#00652e" stroke="#00652e"></path><path d="M0 600L88 600L99 513Z" fill="#2c7540" stroke="#2c7540"></path><path d="M0 408L0 471L99 513Z" fill="#2c7540" stroke="#2c7540"></path><path d="M687 195L676 89L603 191Z" fill="#106933" stroke="#106933"></path><path d="M676 89L589 0L561 109Z" fill="#106933" stroke="#106933"></path><path d="M190 0L101 0L220 85Z" fill="#548d5e" stroke="#548d5e"></path><path d="M70 108L0 103L0 237Z" fill="#337945" stroke="#337945"></path><path d="M704 466L794 378L706 407Z" fill="#106933" stroke="#106933"></path><path d="M706 407L794 378L683 268Z" fill="#2c7540" stroke="#2c7540"></path><path d="M687 195L801 204L676 89Z" fill="#337945" stroke="#337945"></path><path d="M828 487L794 378L704 466Z" fill="#106933" stroke="#106933"></path><path d="M626 600L707 600L637 496Z" fill="#478554" stroke="#478554"></path><path d="M0 0L0 103L70 108Z" fill="#548d5e" stroke="#548d5e"></path><path d="M0 471L0 600L99 513Z" fill="#478554" stroke="#478554"></path><path d="M826 319L801 204L683 268Z" fill="#4e8959" stroke="#4e8959"></path><path d="M676 89L703 0L589 0Z" fill="#24713c" stroke="#24713c"></path><path d="M900 365L826 319L794 378Z" fill="#00652e" stroke="#00652e"></path><path d="M794 378L826 319L683 268Z" fill="#00652e" stroke="#00652e"></path><path d="M824 73L703 0L676 89Z" fill="#3a7d4a" stroke="#3a7d4a"></path><path d="M707 600L828 487L704 466Z" fill="#548d5e" stroke="#548d5e"></path><path d="M101 0L0 0L70 108Z" fill="#4e8959" stroke="#4e8959"></path><path d="M707 600L819 600L828 487Z" fill="#00652e" stroke="#00652e"></path><path d="M900 191L824 73L801 204Z" fill="#1b6d37" stroke="#1b6d37"></path><path d="M801 204L824 73L676 89Z" fill="#24713c" stroke="#24713c"></path><path d="M900 274L801 204L826 319Z" fill="#3a7d4a" stroke="#3a7d4a"></path><path d="M900 536L900 365L828 487Z" fill="#478554" stroke="#478554"></path><path d="M828 487L900 365L794 378Z" fill="#106933" stroke="#106933"></path><path d="M900 365L900 274L826 319Z" fill="#106933" stroke="#106933"></path><path d="M900 274L900 191L801 204Z" fill="#478554" stroke="#478554"></path><path d="M900 0L808 0L824 73Z" fill="#4e8959" stroke="#4e8959"></path><path d="M824 73L808 0L703 0Z" fill="#337945" stroke="#337945"></path><path d="M819 600L900 536L828 487Z" fill="#3a7d4a" stroke="#3a7d4a"></path><path d="M819 600L900 600L900 536Z" fill="#106933" stroke="#106933"></path><path d="M900 191L900 68L824 73Z" fill="#1b6d37" stroke="#1b6d37"></path><path d="M900 68L900 0L824 73Z" fill="#41814f" stroke="#41814f"></path></g></svg>